<svg width="75" height="84" viewBox="0 0 75 84" fill="none" xmlns="http://www.w3.org/2000/svg">
<g clip-path="url(#clip0_4_4)">
<path d="M72.3406 39.6231C70.4819 36.4514 67.8308 33.817 64.6459 31.9801C62.215 30.5669 59.7007 29.6693 56.8627 29.2822V19.1183C58.2392 18.5477 59.4137 17.5784 60.2329 16.3337C61.0521 15.0891 61.4792 13.6276 61.4592 12.1377C61.4642 11.1316 61.2707 10.1339 60.8886 9.20295C60.5065 8.27197 59.9459 7.42609 59.2352 6.71201C58.5261 5.9996 57.6819 5.43234 56.7526 5.04694C55.8233 4.66154 54.8273 4.46133 53.8212 4.46133C51.7841 4.46133 49.8287 5.26884 48.3855 6.70701C46.9424 8.14517 46.1282 10.0972 46.1215 12.136C46.1215 15.2543 47.7766 17.9154 50.6212 19.1183V29.2239C48.2654 29.5642 45.978 30.2833 43.8491 31.3494L16.6424 10.7496C16.8326 10.0305 16.9994 9.28637 16.9994 8.50221C16.9978 3.80564 13.1921 0 8.49554 0C3.79897 0 0 3.80564 0 8.50221C0 13.1988 3.80564 17.0044 8.50221 17.0044C10.1056 17.0044 11.5888 16.5339 12.8684 15.7631L14.6503 17.1129L39.0558 34.7096C37.7644 35.8942 36.5615 37.2422 35.6005 38.7571C33.6535 41.8437 32.4622 45.2356 32.4622 48.9394V49.7036C32.4706 52.2145 32.9227 54.7055 33.7986 57.0613C34.5377 59.0717 35.6189 60.9053 36.9619 62.5603L28.8535 70.6872C26.4543 69.7962 23.7632 70.3885 21.9479 72.2021C20.7133 73.43 20.0192 75.1034 20.0259 76.8486C20.0326 78.5921 20.7133 80.2538 21.9546 81.4951C23.1959 82.7364 24.856 83.4238 26.6011 83.4238C28.3463 83.4238 30.018 82.7364 31.2476 81.4951C32.4756 80.2538 33.1763 78.5938 33.1696 76.8486C33.1696 76.1796 33.0662 75.5139 32.8643 74.8765L41.2397 66.5011C42.3859 67.297 43.6256 67.9643 44.962 68.5383C47.7082 69.7428 50.6746 70.3668 53.6744 70.3718H54.2467C57.7603 70.3718 61.0755 69.5443 64.187 67.8575C67.3854 66.1424 70.0732 63.6114 71.9768 60.5199C73.9306 57.4016 75 53.9463 75 50.1457V49.9555C75 46.2199 74.1341 42.7763 72.3272 39.6197L72.3406 39.6231ZM62.1132 57.1997C59.8408 59.7257 57.2264 61.2857 54.2734 61.2857H53.7128C52.026 61.2857 50.3709 60.8202 48.7609 59.9676C46.9958 59.05 45.4992 57.6869 44.4197 56.0152C43.2485 54.3601 42.6128 52.5532 42.6128 50.6379V50.0656C42.6128 48.182 42.9749 46.3935 43.8858 44.7067C44.8602 42.798 46.1766 41.4299 47.9267 40.2904C49.6769 39.1509 51.4788 38.6037 53.5276 38.6037H53.7194C55.5647 38.6037 57.3282 38.9674 58.9816 39.8133C60.6584 40.6942 62.0815 41.9889 63.1176 43.5738C64.1437 45.1638 64.7793 46.9741 64.9695 48.856L65.0146 50.0456C65.0146 52.635 64.0219 55.0341 62.0431 57.2114L62.1132 57.1997Z" fill="#F8761F"/>
</g>
<defs>
<clipPath id="clip0_4_4">
<rect width="75" height="83.4205" fill="white"/>
</clipPath>
</defs>
</svg>
